<?xml version="1.0" encoding="UTF-8"?>
<svg id="Layer_2" data-name="Layer 2" xmlns="http://www.w3.org/2000/svg" viewBox="0 0 631.78 117.03">
  <defs>
    <style>
      .cls-1 {
        fill: #50f;
      }

      .cls-2 {
        fill: #202030;
      }

      .cls-3 {
        fill: #f6f7f8;
      }
    </style>
  </defs>
  <g>
    <path class="cls-3" d="M50.93,1.89l63.15,109.47c1.45,2.52-.37,5.67-3.28,5.67H30.25c-23.25,0-37.78-25.16-26.16-45.29L44.38,1.89c1.45-2.52,5.09-2.52,6.55,0Z"/>
    <path class="cls-2" d="M57.14,12.66l50.71,87.9H33.09c-11.85,0-19.26-12.83-13.34-23.1L57.14,12.66Z"/>
    <path class="cls-1" d="M63.25,23.31l38.75,67.17h-61.94c-6.92,0-11.24-7.49-7.78-13.48l30.97-53.69Z"/>
  </g>
  <g>
    <path class="cls-3" d="M172.48,85.08V28.02c0-3.35,1.95-5.4,5.21-5.4s5.21,2.05,5.21,5.4v53.44h27.16c2.88,0,4.84,1.77,4.84,4.51s-1.95,4.51-4.84,4.51h-32.37c-3.26,0-5.21-2.05-5.21-5.4Z"/>
    <path class="cls-3" d="M223.08,85.83V28.76c0-3.35,1.95-5.4,5.21-5.4h32.56c2.93,0,4.88,1.77,4.88,4.51s-2,4.51-4.88,4.51h-27.35v21.21h24.88c2.79,0,4.7,1.72,4.7,4.37s-1.91,4.42-4.7,4.42h-24.88v23.44c0,3.35-2,5.4-5.21,5.4s-5.21-2.05-5.21-5.4Z"/>
    <path class="cls-3" d="M274.06,86.25V29.23c0-4.05,2.56-6.6,6.7-6.6,3.54,0,5.63,1.58,7.21,5.49l19.86,48.23h.37l19.81-48.23c1.58-3.86,3.72-5.49,7.35-5.49,4.05,0,6.6,2.51,6.6,6.6v57.02c0,3.12-1.81,4.98-4.74,4.98s-4.79-1.86-4.79-4.98v-45.16h-.33l-18.7,45.07c-1.12,2.7-2.79,3.91-5.4,3.91s-4.33-1.21-5.39-3.81l-18.74-45.16h-.33v45.16c0,3.12-1.77,4.98-4.74,4.98s-4.74-1.86-4.74-4.98Z"/>
    <path class="cls-3" d="M371.97,78.15c-.33-1.02-.56-2.14-.56-3.25,0-3.02,1.86-4.98,4.7-4.98,2.37,0,3.91,1.07,4.93,3.58,2.09,6.28,8.19,9.21,15.95,9.21,8.51,0,14.6-4.37,14.6-10.37,0-5.21-3.53-8.46-12.51-10.42l-7.35-1.53c-13.39-2.84-19.49-9.07-19.49-18.74,0-11.49,10.09-19.39,24.37-19.39,11.58,0,20.7,5.44,23.3,14.42.23.65.37,1.44.37,2.42,0,2.7-1.91,4.46-4.6,4.46-2.51,0-4.05-1.16-5.12-3.58-2.28-6.19-7.39-8.84-14.09-8.84-7.86,0-13.67,3.81-13.67,9.95,0,4.88,3.49,8.14,12.19,10l7.3,1.53c14.09,2.98,19.86,8.6,19.86,18.37,0,12.65-9.95,20.6-25.63,20.6-13.02,0-21.95-5.63-24.56-13.44Z"/>
    <path class="cls-3" d="M433.22,49.51h-3.53c-2.6,0-4.19-1.49-4.19-3.95s1.58-4,4.19-4h3.53v-7.26c0-3.21,2-5.35,5.07-5.35s5.02,2.14,5.02,5.35v7.26h5.72c2.6,0,4.19,1.53,4.19,4s-1.58,3.95-4.19,3.95h-5.72v27.02c0,3.91,1.35,5.67,4.98,5.95l.79.05c2.88.28,4.33,1.44,4.33,3.81,0,3.02-2.33,4.56-7.25,4.56h-.51c-8.23,0-12.42-4.05-12.42-12.14v-29.25Z"/>
    <path class="cls-3" d="M460.62,73.22v-27.21c0-3.35,2.05-5.35,5.02-5.35s5.02,2,5.02,5.35v25.25c0,7.44,3.53,11.44,10.46,11.44s11.63-5.02,11.63-12.65v-24.04c0-3.35,2.09-5.35,5.02-5.35s5.02,2,5.02,5.35v40.23c0,3.12-1.91,5.12-4.79,5.12s-4.84-2-4.84-5.07v-4.09h-.23c-2.7,5.86-7.67,9.16-15.16,9.16-10.65,0-17.16-6.93-17.16-18.14Z"/>
    <path class="cls-3" d="M510.53,66.02c0-15.44,8.19-25.25,20.46-25.25,7.02,0,12.6,3.53,15.35,8.93h.19v-21.91c0-3.3,2.09-5.3,5.07-5.3s5.02,2,5.02,5.3v58.55c0,3.16-2.05,5.02-4.98,5.02s-5.12-1.86-5.12-5.02v-4.56h-.14c-2.51,5.72-7.67,9.53-15.3,9.53-12.37,0-20.56-9.86-20.56-25.3ZM546.62,66.02c0-10.14-5.16-16.79-12.88-16.79s-12.93,6.51-12.93,16.79,4.98,16.79,12.93,16.79,12.88-6.56,12.88-16.79Z"/>
    <path class="cls-3" d="M566.43,28.39c0-3.21,2.6-5.72,5.81-5.72s5.86,2.51,5.86,5.72-2.6,5.77-5.86,5.77-5.81-2.6-5.81-5.77ZM567.22,86.06v-40.04c0-3.26,2-5.35,5.02-5.35s5.02,2.09,5.02,5.35v40.04c0,3.21-2,5.3-5.02,5.3s-5.02-2.09-5.02-5.3Z"/>
    <path class="cls-3" d="M585.36,66.02c0-15.72,9.25-25.35,23.21-25.35s23.21,9.63,23.21,25.35-9.21,25.39-23.21,25.39-23.21-9.63-23.21-25.39ZM621.55,66.02c0-10.84-5.12-17.07-12.98-17.07s-12.98,6.23-12.98,17.07,5.12,17.12,12.98,17.12,12.98-6.23,12.98-17.12Z"/>
  </g>
</svg>